<svg xmlns="http://www.w3.org/2000/svg" viewBox="0 0 64 64" width="64" height="64"><g class="nc-icon-wrapper" stroke="none" fill="#111111"><path data-color="color-2" d="M17,52H9a1,1,0,0,1-1-1V35h9Z"></path><path data-color="color-2" d="M55,52H20V35H56V51A1,1,0,0,1,55,52Z"></path><path data-color="color-2" d="M56,32H8V26a1,1,0,0,1,1-1H55a1,1,0,0,1,1,1Z"></path><path d="M59,7H5a3,3,0,0,0-3,3V54a3,3,0,0,0,3,3H59a3,3,0,0,0,3-3V10A3,3,0,0,0,59,7ZM18,12a2,2,0,1,1-2,2A2,2,0,0,1,18,12Zm-8,0a2,2,0,1,1-2,2A2,2,0,0,1,10,12ZM60,54a1,1,0,0,1-1,1H5a1,1,0,0,1-1-1V21H60Z" fill="#111111"></path></g></svg>